HIERARCHY
ROOT Hips
{
	OFFSET 0.000000 83.214638 0.000000
	CHANNELS 6 Xposition Yposition Zposition Xrotation Yrotation Zrotation
	JOINT Pelvis
	{
		OFFSET 0.000000 0.000000 0.000000
		CHANNELS 3 Xrotation Yrotation Zrotation
		JOINT LeftUpLeg
		{
			OFFSET 8.479700 -4.795502 -0.379100
			CHANNELS 3 Xrotation Yrotation Zrotation
			JOINT LeftLeg
			{
				OFFSET 0.024144 -32.555107 0.112900
				CHANNELS 3 Xrotation Yrotation Zrotation
				JOINT LeftFoot
				{
					OFFSET -0.024144 -32.638630 -3.012600
					CHANNELS 3 Xrotation Yrotation Zrotation
					JOINT LeftToeBase
					{
						OFFSET 0.970200 -13.225400 11.864200
						CHANNELS 3 Xrotation Yrotation Zrotation
						End Site
						{
							OFFSET 0.000000 12.319262 0.000000
						}
					}
					JOINT LFootTongue
					{
						OFFSET 1.142400 -1.059800 6.665200
						CHANNELS 3 Xrotation Yrotation Zrotation
						End Site
						{
							OFFSET 0.000000 12.319262 0.000000
						}
					}
				}
				JOINT LeftPantLeg
				{
					OFFSET 0.918482 -16.533964 -2.284700
					CHANNELS 3 Xrotation Yrotation Zrotation
					End Site
					{
						OFFSET 0.350399 24.744368 0.000000
					}
				}
			}
		}
		JOINT RightUpLeg
		{
			OFFSET -8.479700 -4.795502 -0.379100
			CHANNELS 3 Xrotation Yrotation Zrotation
			JOINT RightLeg
			{
				OFFSET -0.023144 -32.555092 0.112900
				CHANNELS 3 Xrotation Yrotation Zrotation
				JOINT RightFoot
				{
					OFFSET 0.023144 -32.638641 -3.012700
					CHANNELS 3 Xrotation Yrotation Zrotation
					JOINT RightToeBase
					{
						OFFSET -0.970200 -13.225400 11.864200
						CHANNELS 3 Xrotation Yrotation Zrotation
						End Site
						{
							OFFSET 0.000000 12.319244 0.000000
						}
					}
					JOINT RFootTongue
					{
						OFFSET -1.142200 -1.059800 6.665200
						CHANNELS 3 Xrotation Yrotation Zrotation
						End Site
						{
							OFFSET 0.000000 12.319243 0.000000
						}
					}
				}
				JOINT RightPantLeg
				{
					OFFSET -0.919482 -16.533978 -2.284800
					CHANNELS 3 Xrotation Yrotation Zrotation
					End Site
					{
						OFFSET -0.350400 24.744419 0.000000
					}
				}
			}
		}
	}
	JOINT Spine
	{
		OFFSET 0.000000 7.722000 1.166200
		CHANNELS 3 Xrotation Yrotation Zrotation
		JOINT Spine1
		{
			OFFSET 0.000000 12.024101 0.248800
			CHANNELS 3 Xrotation Yrotation Zrotation
			JOINT Spine2
			{
				OFFSET 0.000000 11.502998 -0.491200
				CHANNELS 3 Xrotation Yrotation Zrotation
				JOINT Neck
				{
					OFFSET 0.000000 18.430702 -3.123100
					CHANNELS 3 Xrotation Yrotation Zrotation
					JOINT Head
					{
						OFFSET 0.000000 9.051102 1.034000
						CHANNELS 3 Xrotation Yrotation Zrotation
						JOINT HairB
						{
							OFFSET 0.208400 24.786102 24.822300
							CHANNELS 3 Xrotation Yrotation Zrotation
							End Site
							{
								OFFSET 0.000000 32.263779 0.000000
							}
						}
						JOINT HairA
						{
							OFFSET -7.081100 24.428299 23.196600
							CHANNELS 3 Xrotation Yrotation Zrotation
							End Site
							{
								OFFSET 0.000000 32.263779 0.000000
							}
						}
						JOINT Hat
						{
							OFFSET 16.728800 15.048294 -15.439601
							CHANNELS 3 Xrotation Yrotation Zrotation
							End Site
							{
								OFFSET 0.000000 32.263779 0.000000
							}
						}
					}
				}
				JOINT LeftShoulder
				{
					OFFSET 6.197800 13.665199 -4.064700
					CHANNELS 3 Xrotation Yrotation Zrotation
					JOINT LeftArm
					{
						OFFSET 7.778100 -0.187103 -1.709300
						CHANNELS 3 Xrotation Yrotation Zrotation
						JOINT LeftForeArm
						{
							OFFSET 22.049376 0.000000 0.000000
							CHANNELS 3 Xrotation Yrotation Zrotation
							JOINT LeftHand
							{
								OFFSET 23.009392 0.000000 0.000000
								CHANNELS 3 Xrotation Yrotation Zrotation
								JOINT LeftHandThumb1
								{
									OFFSET 3.507191 -2.063065 3.133727
									CHANNELS 3 Xrotation Yrotation Zrotation
									JOINT LeftHandThumb2
									{
										OFFSET 3.101337 -1.790558 1.790558
										CHANNELS 3 Xrotation Yrotation Zrotation
										JOINT LeftHandThumb3
										{
											OFFSET 3.058640 -1.765907 1.765906
											CHANNELS 3 Xrotation Yrotation Zrotation
											End Site
											{
												OFFSET -0.415260 3.926476 -0.049563
											}
										}
									}
								}
								JOINT LeftHandIndex1
								{
									OFFSET 11.334419 -0.901459 3.706815
									CHANNELS 3 Xrotation Yrotation Zrotation
									JOINT LeftHandIndex2
									{
										OFFSET 3.283112 0.000000 0.000000
										CHANNELS 3 Xrotation Yrotation Zrotation
										JOINT LeftHandIndex3
										{
											OFFSET 3.323853 0.000000 0.000000
											CHANNELS 3 Xrotation Yrotation Zrotation
											End Site
											{
												OFFSET -1.135597 3.097809 0.402452
											}
										}
									}
								}
								JOINT LeftHandMiddle1
								{
									OFFSET 11.335861 0.000000 0.000000
									CHANNELS 3 Xrotation Yrotation Zrotation
									JOINT LeftHandMiddle2
									{
										OFFSET 3.410492 0.000000 0.000000
										CHANNELS 3 Xrotation Yrotation Zrotation
										JOINT LeftHandMiddle3
										{
											OFFSET 3.312172 0.000000 0.000000
											CHANNELS 3 Xrotation Yrotation Zrotation
											End Site
											{
												OFFSET -1.150200 3.080154 0.400270
											}
										}
									}
								}
								JOINT LeftHandRing1
								{
									OFFSET 11.514786 -0.013176 -3.003090
									CHANNELS 3 Xrotation Yrotation Zrotation
									JOINT LeftHandRing2
									{
										OFFSET 3.053307 0.000000 0.000000
										CHANNELS 3 Xrotation Yrotation Zrotation
										JOINT LeftHandRing3
										{
											OFFSET 3.295807 0.000000 0.000000
											CHANNELS 3 Xrotation Yrotation Zrotation
											End Site
											{
												OFFSET -1.281006 3.013344 0.375733
											}
										}
									}
								}
								JOINT LeftHandPinky1
								{
									OFFSET 10.518692 -0.960396 -5.730441
									CHANNELS 3 Xrotation Yrotation Zrotation
									JOINT LeftHandPinky2
									{
										OFFSET 2.861649 0.000000 0.000000
										CHANNELS 3 Xrotation Yrotation Zrotation
										JOINT LeftHandPinky3
										{
											OFFSET 2.863380 0.000000 0.000000
											CHANNELS 3 Xrotation Yrotation Zrotation
											End Site
											{
												OFFSET -0.843597 2.711159 0.369971
											}
										}
									}
								}
							}
							JOINT LSleeve
							{
								OFFSET 6.676277 -0.344902 -1.011730
								CHANNELS 3 Xrotation Yrotation Zrotation
								End Site
								{
									OFFSET 0.000000 14.885353 0.000000
								}
							}
						}
					}
				}
				JOINT RightShoulder
				{
					OFFSET -6.197800 13.665199 -4.064700
					CHANNELS 3 Xrotation Yrotation Zrotation
					JOINT RightArm
					{
						OFFSET -7.778100 -0.187103 -1.709300
						CHANNELS 3 Xrotation Yrotation Zrotation
						JOINT RightForeArm
						{
							OFFSET -22.049376 0.000000 0.000000
							CHANNELS 3 Xrotation Yrotation Zrotation
							JOINT RightHand
							{
								OFFSET -23.009392 0.000000 0.000000
								CHANNELS 3 Xrotation Yrotation Zrotation
								JOINT RightHandThumb1
								{
									OFFSET -3.507191 -2.063065 3.133727
									CHANNELS 3 Xrotation Yrotation Zrotation
									JOINT RightHandThumb2
									{
										OFFSET -3.101337 -1.790558 1.790558
										CHANNELS 3 Xrotation Yrotation Zrotation
										JOINT RightHandThumb3
										{
											OFFSET -3.058640 -1.765907 1.765906
											CHANNELS 3 Xrotation Yrotation Zrotation
											End Site
											{
												OFFSET 0.415260 3.926476 -0.049563
											}
										}
									}
								}
								JOINT RightHandIndex1
								{
									OFFSET -11.334419 -0.901459 3.706815
									CHANNELS 3 Xrotation Yrotation Zrotation
									JOINT RightHandIndex2
									{
										OFFSET -3.283112 0.000000 0.000000
										CHANNELS 3 Xrotation Yrotation Zrotation
										JOINT RightHandIndex3
										{
											OFFSET -3.323853 0.000000 0.000000
											CHANNELS 3 Xrotation Yrotation Zrotation
											End Site
											{
												OFFSET 1.135597 3.097809 0.402452
											}
										}
									}
								}
								JOINT RightHandMiddle1
								{
									OFFSET -11.335861 0.000000 0.000000
									CHANNELS 3 Xrotation Yrotation Zrotation
									JOINT RightHandMiddle2
									{
										OFFSET -3.410492 0.000000 0.000000
										CHANNELS 3 Xrotation Yrotation Zrotation
										JOINT RightHandMiddle3
										{
											OFFSET -3.312172 0.000000 0.000000
											CHANNELS 3 Xrotation Yrotation Zrotation
											End Site
											{
												OFFSET 1.150200 3.080154 0.400270
											}
										}
									}
								}
								JOINT RightHandRing1
								{
									OFFSET -11.514786 -0.013176 -3.003090
									CHANNELS 3 Xrotation Yrotation Zrotation
									JOINT RightHandRing2
									{
										OFFSET -3.053307 0.000000 0.000000
										CHANNELS 3 Xrotation Yrotation Zrotation
										JOINT RightHandRing3
										{
											OFFSET -3.295807 0.000000 0.000000
											CHANNELS 3 Xrotation Yrotation Zrotation
											End Site
											{
												OFFSET 1.281006 3.013344 0.375733
											}
										}
									}
								}
								JOINT RightHandPinky1
								{
									OFFSET -10.518692 -0.960396 -5.730441
									CHANNELS 3 Xrotation Yrotation Zrotation
									JOINT RightHandPinky2
									{
										OFFSET -2.861649 0.000000 0.000000
										CHANNELS 3 Xrotation Yrotation Zrotation
										JOINT RightHandPinky3
										{
											OFFSET -2.863380 0.000000 0.000000
											CHANNELS 3 Xrotation Yrotation Zrotation
											End Site
											{
												OFFSET 0.843597 2.711159 0.369971
											}
										}
									}
								}
							}
							JOINT RSleeve
							{
								OFFSET -6.676277 -0.344902 -1.011730
								CHANNELS 3 Xrotation Yrotation Zrotation
								End Site
								{
									OFFSET 0.000000 14.885353 0.000000
								}
							}
						}
					}
				}
				JOINT Backpack
				{
					OFFSET 0.000000 -2.471497 36.677502
					CHANNELS 3 Xrotation Yrotation Zrotation
					End Site
					{
						OFFSET 0.000000 20.427315 0.000000
					}
				}
				JOINT Hood
				{
					OFFSET 0.000000 18.754097 -10.431000
					CHANNELS 3 Xrotation Yrotation Zrotation
					JOINT Hood1
					{
						OFFSET 0.000000 -5.011002 -7.685901
						CHANNELS 3 Xrotation Yrotation Zrotation
						End Site
						{
							OFFSET 0.000000 9.175140 0.000000
						}
					}
				}
				JOINT LHoodieString
				{
					OFFSET 5.250500 16.397697 3.089900
					CHANNELS 3 Xrotation Yrotation Zrotation
					JOINT LHoodieString1
					{
						OFFSET 0.257700 -6.364304 3.694600
						CHANNELS 3 Xrotation Yrotation Zrotation
						JOINT LHoodieString2
						{
							OFFSET 0.000000 -9.643799 2.679100
							CHANNELS 3 Xrotation Yrotation Zrotation
							End Site
							{
								OFFSET 0.000000 10.009018 0.000000
							}
						}
					}
				}
				JOINT RHoodieString
				{
					OFFSET -5.250500 16.397697 3.089900
					CHANNELS 3 Xrotation Yrotation Zrotation
					JOINT RHoodieString1
					{
						OFFSET -0.257700 -6.364304 3.694600
						CHANNELS 3 Xrotation Yrotation Zrotation
						JOINT RHoodieString2
						{
							OFFSET 0.000000 -9.643799 2.679100
							CHANNELS 3 Xrotation Yrotation Zrotation
							End Site
							{
								OFFSET 0.000000 10.009018 0.000000
							}
						}
					}
				}
			}
			JOINT LBackpack_Strap
			{
				OFFSET 15.223200 -7.719803 -6.610900
				CHANNELS 3 Xrotation Yrotation Zrotation
				End Site
				{
					OFFSET 0.000000 16.040596 0.000000
				}
			}
			JOINT RBackpack_Strap
			{
				OFFSET -15.223000 -7.719803 -6.610900
				CHANNELS 3 Xrotation Yrotation Zrotation
				End Site
				{
					OFFSET 0.000000 16.040596 0.000000
				}
			}
		}
	}
	JOINT BoyFacialAnim_Joint
	{
		OFFSET 1.000000 -82.208099 -1.550900
		CHANNELS 3 Xrotation Yrotation Zrotation
		End Site
		{
			OFFSET 0.000000 30.012791 0.000000
		}
	}
}
MOTION
Frames: 4
Frame Time: 0.033333
-0.169202 73.867889 0.174977 3.016509 -58.257354 6.570235 -0.000000 -0.000000 -0.000000 -35.249865 10.175200 24.287755 43.161154 -7.481277 -9.789067 -9.608922 -2.809829 -8.081555 0.000000 -0.000003 0.000000 0.000000 -0.000003 0.000000 0.000001 -0.000001 0.000001 -32.837463 -8.273078 -25.543058 48.057901 2.419849 -7.553119 -19.172992 2.835484 20.742429 -0.000000 0.000001 0.000000 -0.000000 0.000001 0.000000 0.000001 -0.000000 0.000001 11.191589 0.111548 -2.787770 8.434584 0.027708 -5.592327 8.457050 0.027865 -5.591872 -21.555645 25.063367 12.062564 -0.294043 25.465752 -3.208974 0.000000 -0.000000 0.000000 0.000000 -0.000000 0.000000 0.000000 -0.000000 0.000000 -6.221669 -11.503860 -4.023826 -23.062176 9.568548 -36.639597 0.046109 -43.169121 -0.011165 22.743751 -5.685855 15.979284 -1.064236 -7.954922 8.490075 2.373417 19.986085 -2.038339 0.000001 0.000000 -0.000001 13.340881 -1.006690 10.682255 -0.167581 0.303390 -31.105634 -0.000002 0.000003 -0.000005 8.495449 -0.329576 -0.915319 0.231517 0.661201 -29.901865 0.000000 -0.000000 0.000002 6.111754 3.150877 -16.210969 0.047059 0.322403 -30.125482 -0.000001 -0.000000 -0.000006 -5.636018 7.709853 -13.878623 0.224391 0.276610 -46.588386 -0.000002 -0.000000 0.000001 0.000002 0.000001 -0.000001 -5.488235 10.658259 2.466538 -41.473810 -26.755577 30.079071 24.955505 111.862987 -23.308505 -8.702509 12.423035 -9.801978 0.265006 10.061112 -10.888478 1.383832 -17.412879 3.016295 -0.000000 0.000001 0.000000 19.443604 11.174442 -13.340184 -0.118656 -0.322729 18.035593 -0.000001 -0.000001 -0.000000 4.320488 2.436929 -4.811721 0.349132 -0.461235 26.890325 -0.000000 -0.000001 0.000005 -7.005606 -10.695164 5.719853 0.111859 -0.089194 26.155883 0.000002 0.000001 0.000002 -19.433498 -20.238224 5.987873 0.223776 -0.085834 36.844547 -0.000002 -0.000001 -0.000002 -0.000001 -0.000001 -0.000003 0.000001 -0.000002 0.000001 0.000001 -0.000002 0.000001 0.000001 -0.000002 0.000001 0.000001 -0.000002 0.000001 0.000001 -0.000002 0.000001 0.000001 -0.000000 -0.000000 0.000001 -0.000002 0.000001 0.000001 -0.000002 0.000001 0.000001 -0.000000 -0.000000 0.000001 0.000002 -0.000000 0.000001 0.000002 -0.000000 -0.000000 -0.000000 -0.000000 
-0.191989 74.017960 0.196020 3.231257 -58.108736 6.442337 -0.000000 0.000001 0.000000 -35.396270 10.292083 24.570839 42.829569 -7.579683 -9.806124 -9.255704 -2.882325 -7.936025 -0.000000 0.000002 -0.000000 -0.000000 0.000002 -0.000000 0.000000 -0.000001 0.000001 -32.263826 -8.208051 -25.019080 47.290211 1.919967 -7.418484 -18.913349 2.806691 20.915272 -0.000000 -0.000000 -0.000000 -0.000000 -0.000000 -0.000000 0.000000 0.000000 -0.000002 11.202919 0.079905 -2.646983 8.455974 -0.023400 -5.301522 8.478434 -0.023266 -5.301051 -21.649893 25.108663 12.072785 0.052824 25.525800 -3.578865 -0.000001 0.000000 -0.000000 -0.000001 0.000000 -0.000000 -0.000001 0.000000 -0.000000 -6.179894 -11.537655 -3.704602 -23.589617 9.103410 -36.583900 0.411837 -42.079095 0.522295 22.543164 -7.689580 15.783539 -0.799231 -8.337358 7.834132 2.373414 19.986079 -2.038339 0.000002 -0.000001 -0.000002 13.549899 -1.682933 10.010325 -0.168079 0.304183 -31.219507 -0.000001 -0.000001 -0.000002 8.558960 -0.700062 -1.553424 0.232501 0.660336 -29.994199 0.000000 -0.000001 -0.000002 6.146732 2.911198 -16.868245 0.047274 0.322116 -30.190785 0.000001 -0.000003 -0.000006 -5.661782 7.631034 -14.394082 0.226361 0.275147 -46.974787 -0.000000 0.000002 -0.000003 0.000001 0.000002 -0.000000 -5.258423 10.480625 1.064903 -41.233429 -26.983728 30.052378 20.575530 111.447131 -18.912833 -8.575887 12.387363 -8.872522 1.198760 9.169953 -9.764077 1.358855 -17.333304 3.042076 0.000003 -0.000000 0.000000 18.848850 13.108833 -10.421621 -0.115125 -0.323234 19.805204 -0.000002 0.000001 0.000005 3.841099 3.517901 -1.959357 0.351889 -0.466607 28.430077 0.000003 0.000003 0.000005 -6.944203 -10.073343 8.181580 0.117161 -0.101574 27.672255 -0.000000 0.000001 0.000002 -19.080031 -20.198483 8.801739 0.231572 -0.082773 38.236509 -0.000003 0.000000 -0.000002 -0.000000 0.000001 0.000002 -0.000001 0.000001 -0.000001 -0.000001 0.000001 -0.000001 -0.000001 0.000001 -0.000001 -0.000001 0.000001 -0.000001 -0.000001 0.000001 -0.000000 -0.000001 0.000000 0.000001 -0.000001 0.000001 -0.000001 -0.000001 0.000001 -0.000000 -0.000001 0.000000 0.000001 -0.000001 -0.000002 -0.000000 -0.000001 -0.000002 -0.000000 -0.000000 0.000001 0.000000 
-0.212544 74.170815 0.218027 3.458493 -57.870943 6.273619 0.000000 -0.000001 0.000000 -35.663563 10.497266 24.940036 42.496597 -7.822203 -9.849588 -8.832141 -2.999851 -7.647372 -0.000000 -0.000001 -0.000000 -0.000000 -0.000001 0.000000 0.000000 0.000005 -0.000001 -31.600260 -8.091896 -24.419024 46.473495 1.302467 -7.270068 -18.648153 2.748959 21.154141 -0.000000 -0.000000 -0.000000 -0.000000 -0.000000 -0.000000 0.000001 0.000001 -0.000001 11.234575 0.034438 -2.468254 8.517754 -0.098716 -4.931355 8.540242 -0.098615 -4.930882 -21.794039 25.129191 12.113583 0.452704 25.629141 -4.144186 -0.000000 0.000000 0.000000 -0.000000 0.000000 0.000000 -0.000000 0.000000 0.000000 -6.128181 -11.555104 -3.380562 -24.209013 8.629686 -36.199596 0.610446 -40.487568 1.349422 21.688086 -9.954531 15.671266 -0.416313 -8.880083 6.812105 2.373418 19.986083 -2.038338 -0.000001 -0.000000 -0.000000 13.526114 -2.640676 10.171161 -0.166254 0.301244 -30.811038 -0.000003 0.000002 -0.000001 8.553774 -1.226442 -1.508010 0.227887 0.662494 -29.599052 0.000001 -0.000002 -0.000000 6.123323 2.678722 -16.806268 0.045806 0.322892 -29.787623 -0.000000 -0.000000 0.000003 -5.498864 7.710307 -14.433443 0.223768 0.276412 -46.513923 -0.000001 0.000001 -0.000002 0.000001 0.000000 0.000002 -5.012271 10.210567 -0.531677 -41.343910 -27.259382 29.543211 14.280322 111.155694 -12.377811 -8.338959 12.406496 -8.193812 2.366115 7.905225 -8.111902 1.512660 -17.704892 2.904329 0.000004 -0.000003 0.000005 18.424842 13.493417 -8.089306 -0.115526 -0.324854 21.906479 0.000000 0.000002 0.000002 3.778841 3.256049 0.038680 0.358097 -0.471911 30.293043 0.000001 0.000000 -0.000000 -6.476310 -10.938146 10.195505 0.111975 -0.111907 29.008005 0.000002 -0.000003 0.000002 -18.140714 -21.831802 11.333398 0.233975 -0.085544 39.532005 -0.000003 -0.000001 -0.000005 -0.000003 -0.000006 -0.000002 -0.000000 -0.000003 0.000001 -0.000000 -0.000003 0.000001 -0.000000 -0.000003 0.000001 -0.000000 -0.000003 0.000001 -0.000000 -0.000003 -0.000000 -0.000001 -0.000002 0.000001 -0.000000 -0.000003 0.000001 -0.000000 -0.000003 -0.000000 -0.000001 -0.000002 0.000001 -0.000002 -0.000001 0.000001 -0.000002 -0.000001 0.000001 0.000000 -0.000001 0.000000 
-0.232110 74.313324 0.283158 3.669524 -57.194256 5.868820 -0.000000 0.000004 -0.000000 -36.754348 10.996418 25.765801 42.654910 -8.937238 -9.905986 -7.968774 -3.162404 -7.261966 -0.000000 -0.000001 -0.000000 -0.000000 -0.000001 0.000000 -0.000000 -0.000003 0.000001 -30.385172 -7.595380 -23.383516 45.451402 -0.056790 -7.132215 -18.425275 2.516890 21.781624 0.000000 0.000002 -0.000000 0.000000 0.000002 -0.000000 0.000000 -0.000001 0.000002 11.371555 -0.091746 -2.106189 8.787867 -0.326066 -4.191544 8.810346 -0.325912 -4.191081 -22.360398 24.845566 12.623052 1.800225 25.897613 -6.048709 -0.000000 0.000000 -0.000000 -0.000000 0.000000 -0.000000 -0.000000 0.000000 -0.000000 -6.024754 -11.602725 -2.903302 -24.537979 8.548366 -35.328932 0.439742 -39.436375 2.029615 20.047563 -11.967577 15.564188 0.004598 -9.547361 5.616980 2.373416 19.986081 -2.038339 -0.000001 0.000001 -0.000000 13.382408 -3.744279 10.792906 -0.162627 0.295492 -30.029876 -0.000000 0.000001 -0.000003 8.522632 -1.826914 -1.060489 0.219137 0.666606 -28.850719 -0.000000 0.000001 -0.000003 6.083458 2.449583 -16.287798 0.043053 0.321415 -29.036575 -0.000002 0.000001 -0.000004 -5.183957 7.860737 -14.194547 0.217900 0.279611 -45.451750 0.000002 0.000001 0.000002 0.000003 0.000000 0.000000 -4.884998 9.557197 -1.972399 -43.862187 -26.875881 25.631992 1.431514 111.934909 1.773094 -7.655701 12.330569 -8.760078 3.632348 6.461677 -6.099987 1.788370 -18.409219 2.631007 -0.000002 -0.000002 0.000006 18.170117 13.083591 -6.102010 -0.117148 -0.331329 24.343790 0.000002 0.000003 0.000006 4.037220 2.330023 1.607071 0.367444 -0.477314 32.498334 0.000002 -0.000000 -0.000000 -5.542831 -12.550166 12.338779 0.103961 -0.121387 30.309169 0.000000 -0.000001 0.000004 -16.490715 -24.328260 14.073519 0.232847 -0.093755 40.839586 -0.000002 -0.000001 -0.000002 -0.000001 -0.000000 -0.000004 -0.000001 0.000000 0.000001 -0.000001 0.000000 0.000001 -0.000001 0.000000 0.000001 -0.000001 0.000000 0.000001 -0.000001 0.000000 0.000002 0.000001 0.000000 -0.000001 -0.000001 0.000000 0.000001 -0.000001 0.000000 0.000002 0.000001 0.000000 -0.000001 0.000002 0.000002 -0.000000 0.000002 0.000002 -0.000000 -0.000000 0.000004 -0.000000 
